<?xml version="1.0" encoding="UTF-8" standalone="no"?>
<!-- Created with Inkscape (http://www.inkscape.org/) -->

<svg
   xmlns:dc="http://purl.org/dc/elements/1.1/"
   xmlns:cc="http://creativecommons.org/ns#"
   xmlns:rdf="http://www.w3.org/1999/02/22-rdf-syntax-ns#"
   xmlns:svg="http://www.w3.org/2000/svg"
   xmlns="http://www.w3.org/2000/svg"
   xmlns:sodipodi="http://sodipodi.sourceforge.net/DTD/sodipodi-0.dtd"
   xmlns:inkscape="http://www.inkscape.org/namespaces/inkscape"
   width="290mm"
   height="100mm"
   viewBox="0 0 1027.559 354.33069"
   id="svg3389"
   version="1.1"
   inkscape:version="0.91 r13725"
   sodipodi:docname="default_header_logo.svg">
  <defs
     id="defs3391">
    <inkscape:path-effect
       effect="spiro"
       id="path-effect3483"
       is_visible="true" />
  </defs>
  <sodipodi:namedview
     id="base"
     pagecolor="#ffffff"
     bordercolor="#666666"
     borderopacity="1.0"
     inkscape:pageopacity="0.0"
     inkscape:pageshadow="2"
     inkscape:zoom="0.9899495"
     inkscape:cx="495.1233"
     inkscape:cy="211.92859"
     inkscape:document-units="px"
     inkscape:current-layer="layer1"
     showgrid="false"
     showborder="true"
     inkscape:window-width="1276"
     inkscape:window-height="755"
     inkscape:window-x="21"
     inkscape:window-y="69"
     inkscape:window-maximized="0">
    <inkscape:grid
       type="xygrid"
       id="grid3485" />
  </sodipodi:namedview>
  <metadata
     id="metadata3394">
    <rdf:RDF>
      <cc:Work
         rdf:about="">
        <dc:format>image/svg+xml</dc:format>
        <dc:type
           rdf:resource="http://purl.org/dc/dcmitype/StillImage" />
        <dc:title />
      </cc:Work>
    </rdf:RDF>
  </metadata>
  <g
     inkscape:label="Layer 1"
     inkscape:groupmode="layer"
     id="layer1"
     transform="translate(0,-698.03147)">
    <g
       id="g108"
       transform="matrix(2.7154664,0,0,-2.5621868,293.71154,970.61298)">
      <path
         d="m 0,0 0,-14.44 7.3,0 L 0,0 Z m -39.15,-14.44 30.63,0 0,25 -30.63,0 0,-25 z m -9.63,79.31 9.87,0 0,-46.57 29.66,0 -30.72,60.75 -7.76,15.35 -25.58,-49.32 7.18,-10.36 17.35,30.15 z m -16.68,-45.45 17.83,32.53 0,-66.39 -56.55,0 26.51,51.11 12.21,-17.25 z"
         style="fill:#231f20;fill-opacity:1;fill-rule:nonzero;stroke:none"
         id="path110"
         inkscape:connector-curvature="0" />
    </g>
    <g
       id="g112"
       transform="matrix(2.7154664,0,0,-2.5621868,281.61684,948.05241)">
      <path
         d="M 0,0 -0.747,0.226 -0.521,1.03 0,0 Z m 0.136,-2.139 -0.566,-1.935 -1.449,0.419 0.566,1.935 1.449,-0.419 z m -1.132,-3.87 -0.566,-1.935 -1.448,0.418 0.566,1.947 1.448,-0.43 z m -1.132,-3.871 -0.577,-1.946 -1.448,0.43 0.566,1.935 1.459,-0.419 z m -1.143,-3.881 -0.577,-1.936 -1.448,0.43 0.566,1.936 1.459,-0.43 z m -1.154,-3.871 -0.577,-1.935 -1.449,0.441 0.577,1.924 1.449,-0.43 z m -1.154,-3.87 -0.521,-1.743 -0.668,0 -0.837,0.249 0.577,1.935 1.449,-0.441 z m -6.134,44.464 c -0.079,0.226 -0.158,0.453 -0.238,0.679 l 0,0.011 -2.218,4.38 c 0.079,-1.98 0.396,-3.938 1.041,-5.613 1.132,-2.909 0.736,-4.98 0.238,-7.594 -0.385,-2.026 -0.815,-4.311 -0.577,-7.356 0.317,-4.187 -1.245,-11.973 -2.513,-18.231 -0.78,-3.916 -1.459,-7.289 -1.641,-9.416 -0.067,-0.86 -0.271,-1.879 -0.611,-3.067 l 1.562,0 c 0.306,1.109 0.487,2.082 0.555,2.942 0.169,2.037 0.848,5.376 1.618,9.246 1.347,6.677 2.875,14.248 2.535,18.639 -0.215,2.852 0.181,4.935 0.555,6.96 0.497,2.626 0.973,5.116 -0.306,8.42 m -27.659,12.754 c -1.188,1.381 -2.218,2.569 -2.535,2.988 -0.136,0.181 -0.26,0.328 -0.373,0.475 -0.589,0.691 -0.849,0.996 1.154,4.584 1.551,2.761 4.165,6.937 7.356,11.769 l 0.136,0.204 c 0.249,0.374 1.041,3.588 1.698,7.435 l -1.155,2.286 c -0.634,-4.3 -1.539,-8.329 -1.799,-8.895 l -0.136,-0.192 c -3.271,-4.934 -5.828,-9.031 -7.424,-11.872 -2.195,-3.938 -2.184,-4.877 -0.996,-6.292 0.102,-0.124 0.215,-0.26 0.328,-0.407 0.34,-0.464 1.336,-1.607 2.603,-3.067 2.286,-2.648 5.738,-6.655 6.315,-7.775 0.475,-0.905 -0.419,-5.862 -1.018,-9.155 -0.442,-2.434 -0.849,-4.731 -0.962,-6.225 -0.317,-4.391 -1.732,-7.526 -4.335,-9.585 -3.248,-2.569 -4.3,-4.787 -5.036,-6.655 -0.667,-1.697 -1.709,-7.48 -0.701,-14.451 0.271,-1.89 0.158,-3.18 -0.193,-4.131 l 1.584,0 c 0.295,1.086 0.363,2.49 0.102,4.346 -0.95,6.609 0.023,12.165 0.623,13.693 0.656,1.675 1.607,3.667 4.561,6.01 2.953,2.331 4.56,5.828 4.9,10.66 0.102,1.415 0.509,3.678 0.95,6.077 0.985,5.444 1.528,8.839 0.872,10.118 -0.611,1.177 -3.316,4.345 -6.519,8.057 m -11.351,32.163 c 1.121,2.105 2.467,4.652 2.286,7.775 l -2.478,-4.776 -0.011,-0.022 -0.012,-0.034 c -0.351,-0.77 -0.747,-1.517 -1.12,-2.23 -0.577,-1.098 -1.132,-2.127 -1.369,-3.089 -0.272,-1.143 -0.012,-2.071 0.215,-2.886 0.373,-1.347 0.645,-2.309 -1.551,-4.199 -3.927,-3.372 -5.771,-5.738 -5.805,-7.424 -0.023,-0.611 0.203,-1.154 0.645,-1.573 2.15,-2.026 6.247,-7.243 5.907,-8.51 -0.532,-1.992 -1.335,-4.991 0.374,-8.974 1.278,-2.999 0.135,-5.885 -3.52,-8.839 -3.112,-2.535 -2.082,-4.81 -1.245,-6.632 0.204,-0.441 0.396,-0.849 0.521,-1.267 l 0.079,-0.159 c 1.018,-1.675 2.456,-4.843 1.958,-6.167 -0.102,-0.261 -0.283,-0.419 -0.589,-0.51 -1.437,-0.441 -2.207,-0.939 -2.557,-1.675 -0.487,-1.018 -0.012,-2.161 0.645,-3.734 0.113,-0.272 0.237,-0.566 0.362,-0.883 0.724,-1.799 0.283,-2.954 -0.227,-4.289 -0.294,-0.77 -0.588,-1.573 -0.69,-2.535 -0.204,-2.105 -6.541,-12.121 -9.846,-15.946 -0.701,-0.815 -1.244,-1.663 -1.607,-2.546 l 1.664,0 c 0.283,0.532 0.645,1.041 1.086,1.562 3.045,3.519 9.948,13.999 10.208,16.783 0.08,0.758 0.329,1.437 0.6,2.15 0.543,1.426 1.154,3.044 0.215,5.376 -0.124,0.328 -0.249,0.633 -0.373,0.916 -0.487,1.166 -0.86,2.083 -0.668,2.49 0.136,0.306 0.69,0.6 1.63,0.883 0.747,0.226 1.29,0.713 1.55,1.426 0.905,2.354 -1.562,6.643 -2.026,7.424 -0.158,0.452 -0.362,0.894 -0.554,1.324 -0.804,1.765 -1.392,3.033 0.826,4.832 4.187,3.395 5.511,6.96 3.95,10.604 -1.506,3.508 -0.804,6.1 -0.306,7.99 0.758,2.84 -6.258,9.947 -6.338,10.015 -0.124,0.113 -0.169,0.238 -0.169,0.43 0.022,0.668 0.724,2.388 5.285,6.304 2.931,2.524 2.444,4.244 2.025,5.76 -0.203,0.725 -0.384,1.358 -0.203,2.117 0.192,0.78 0.679,1.686 1.233,2.738 M -70.188,19.284 c -0.883,0.306 -1.505,1.154 -1.709,2.32 -0.294,1.652 0.351,3.395 1.63,4.436 1.064,0.872 1.867,1.155 2.501,1.392 1.177,0.43 1.924,0.804 2.162,2.864 0.588,4.843 1.063,10.038 0.203,11.916 -0.056,0.125 -0.113,0.249 -0.17,0.396 l -0.984,-1.901 c 0.373,-2.546 -0.306,-8.193 -0.543,-10.23 -0.159,-1.245 -0.317,-1.302 -1.189,-1.63 -0.701,-0.249 -1.663,-0.611 -2.931,-1.63 -1.709,-1.38 -2.557,-3.689 -2.173,-5.873 0.306,-1.709 1.313,-3.01 2.716,-3.486 2.603,-0.905 3.803,-2.376 3.871,-4.787 0.09,-2.954 -0.826,-14.316 -2.23,-16.511 -1.618,-2.524 -4.062,-7.413 -5.692,-11.374 -1.086,-2.637 -3.769,-5.364 -6.971,-8.431 l 2.173,0 c 2.897,2.807 5.126,5.251 6.201,7.854 1.596,3.893 3.995,8.68 5.568,11.136 1.743,2.739 2.547,14.791 2.467,17.371 -0.09,3.045 -1.697,5.07 -4.9,6.168 M -75.065,3.712 c 0.135,3.033 0.249,5.421 -1.856,8.126 -1.924,2.467 -2.354,3.01 -2.32,4.424 l -1.121,-2.161 c 0.374,-0.781 1.064,-1.686 2.252,-3.203 1.754,-2.252 1.664,-4.187 1.528,-7.118 -0.079,-1.675 -0.17,-3.576 0.068,-5.942 0.441,-4.357 -9.552,-13.614 -14.361,-18.061 -1.675,-1.562 -2.626,-2.445 -3.158,-3.022 l 2.139,0 c 0.6,0.566 1.336,1.256 2.049,1.913 7.424,6.869 15.311,14.61 14.836,19.318 -0.226,2.263 -0.136,4.096 -0.056,5.726 m -9.778,-7.854 c -1.121,-1.109 -2.275,-2.263 -3.169,-3.474 -1.811,-2.479 -4.776,-5.772 -7.865,-8.216 l 1.935,3.734 c 1.833,1.788 3.508,3.735 4.708,5.376 0.962,1.301 2.161,2.501 3.327,3.655 1.573,1.573 3.214,3.203 3.067,4.176 -0.045,0.362 -0.385,0.702 -0.996,1.03 l -0.487,0.26 c -0.554,0.294 -1.109,0.6 -1.641,0.894 l 0.702,1.347 c 0.532,-0.306 1.086,-0.6 1.652,-0.905 l 0.487,-0.261 c 1.064,-0.566 1.663,-1.29 1.788,-2.139 0.249,-1.731 -1.494,-3.474 -3.508,-5.477"
         style="fill:#808181;fill-opacity:1;fill-rule:nonzero;stroke:none"
         id="path114"
         inkscape:connector-curvature="0" />
    </g>
    <g
       id="g116"
       transform="matrix(2.7154664,0,0,-2.5621868,293.72479,970.61117)">
      <path
         d="m 0,0 0,-14.44 -8.522,0 0,24.999 -30.635,0 0,-24.999 -8.476,0 0,66.385 -17.836,-32.525 -12.211,17.247 4.369,8.408 7.175,-10.355 17.349,30.149 9.868,0 0,-46.569 29.662,0 L 0,0 Z"
         style="fill:#ffffff;fill-opacity:1;fill-rule:nonzero;stroke:none"
         id="path118"
         inkscape:connector-curvature="0" />
    </g>
    <g
       id="g72"
       transform="matrix(5.8901628,0,0,-5.7681009,396.37681,823.46631)">
      <path
         d="m 0,0 0,11.262 -4.854,-7.368 -0.099,0 -4.806,7.294 0,-11.188 -3.72,0 0,17.25 4.09,0 4.535,-7.294 4.534,7.294 4.091,0 L 3.771,0 0,0 Z"
         style="fill:#000000;fill-opacity:1;fill-rule:nonzero;stroke:none"
         id="path74"
         inkscape:connector-curvature="0" />
    </g>
    <g
       id="g76"
       transform="matrix(5.8901628,0,0,-5.7681009,-485.58596,1392.4589)">
      <path
         d="m 170.18502,111.4592 -2.291,-5.594 4.583,0 -2.292,5.594 z m 5.225,-12.813995 -1.578,3.868995 -7.293,0 -1.578,-3.868995 -3.869,0 7.393,17.372995 3.499,0 7.393,-17.372995 -3.967,0 z"
         style="fill:#000000;fill-opacity:1;fill-rule:nonzero;stroke:none"
         id="path78"
         inkscape:connector-curvature="0" />
    </g>
    <g
       id="g80"
       transform="matrix(5.8901628,0,0,-5.7681009,673.43263,758.78917)">
      <path
         d="m 0,0 c 0,1.7 -1.184,2.612 -3.081,2.612 l -2.932,0 0,-5.273 3.006,0 C -1.109,-2.661 0,-1.528 0,-0.05 L 0,0 Z m -3.13,-6.038 -2.883,0 0,-5.175 -3.796,0 0,17.25 7.048,0 c 4.116,0 6.605,-2.439 6.605,-5.963 l 0,-0.05 c 0,-3.992 -3.105,-6.062 -6.974,-6.062"
         style="fill:#000000;fill-opacity:1;fill-rule:nonzero;stroke:none"
         id="path82"
         inkscape:connector-curvature="0" />
    </g>
    <g
       id="g84"
       transform="matrix(5.8901628,0,0,-5.7681009,799.41,758.78917)">
      <path
         d="m 0,0 c 0,1.7 -1.184,2.612 -3.081,2.612 l -2.932,0 0,-5.273 3.006,0 C -1.109,-2.661 0,-1.528 0,-0.05 L 0,0 Z m -3.13,-6.038 -2.883,0 0,-5.175 -3.796,0 0,17.25 7.048,0 c 4.116,0 6.605,-2.439 6.605,-5.963 l 0,-0.05 c 0,-3.992 -3.105,-6.062 -6.974,-6.062"
         style="fill:#000000;fill-opacity:1;fill-rule:nonzero;stroke:none"
         id="path86"
         inkscape:connector-curvature="0" />
    </g>
    <g
       id="g88"
       transform="matrix(5.8901628,0,0,-5.7681009,917.11006,783.80483)">
      <path
         d="m 0,0 0,-6.876 -3.795,0 0,6.802 -6.629,10.448 4.436,0 4.115,-6.925 4.189,6.925 4.313,0 L 0,0 Z"
         style="fill:#000000;fill-opacity:1;fill-rule:nonzero;stroke:none"
         id="path90"
         inkscape:connector-curvature="0" />
    </g>
    <g
       id="g92"
       transform="matrix(5.8901628,0,0,-5.7681009,483.1666,1003.3643)">
      <path
         d="m 0,0 0,6.925 -6.998,0 0,-6.925 -3.796,0 0,17.25 3.796,0 0,-6.826 6.998,0 0,6.826 3.795,0 L 3.795,0 0,0 Z"
         style="fill:#000000;fill-opacity:1;fill-rule:nonzero;stroke:none"
         id="path94"
         inkscape:connector-curvature="0" />
    </g>
    <g
       id="g96"
       transform="matrix(5.8901628,0,0,-5.7681009,639.04291,953.61454)">
      <path
         d="m 0,0 c 0,2.957 -2.169,5.422 -5.225,5.422 -3.055,0 -5.174,-2.415 -5.174,-5.372 l 0,-0.05 c 0,-2.957 2.169,-5.421 5.224,-5.421 3.056,0 5.175,2.415 5.175,5.372 L 0,0 Z m -5.225,-8.921 c -5.323,0 -9.142,3.968 -9.142,8.872 l 0,0.049 c 0,4.904 3.869,8.921 9.192,8.921 5.322,0 9.143,-3.968 9.143,-8.871 l 0,-0.05 c 0,-4.903 -3.869,-8.921 -9.193,-8.921"
         style="fill:#000000;fill-opacity:1;fill-rule:nonzero;stroke:none"
         id="path98"
         inkscape:connector-curvature="0" />
    </g>
    <g
       id="g100"
       transform="matrix(5.8901628,0,0,-5.7681009,753.68852,1004.9247)">
      <path
         d="m 0,0 c -4.633,0 -7.467,2.587 -7.467,7.664 l 0,9.857 3.795,0 0,-9.759 c 0,-2.809 1.405,-4.263 3.722,-4.263 2.316,0 3.721,1.404 3.721,4.14 l 0,9.882 3.794,0 0,-9.734 C 7.565,2.563 4.633,0 0,0"
         style="fill:#000000;fill-opacity:1;fill-rule:nonzero;stroke:none"
         id="path102"
         inkscape:connector-curvature="0" />
    </g>
    <g
       id="g104"
       transform="matrix(5.8901628,0,0,-5.7681009,912.18197,937.83646)">
      <path
         d="m 0,0 c 0,1.627 -1.134,2.465 -2.982,2.465 l -3.77,0 0,-4.953 3.844,0 C -1.06,-2.488 0,-1.503 0,-0.049 L 0,0 Z m -0.074,-11.36 -3.697,5.52 -2.981,0 0,-5.52 -3.796,0 0,17.25 7.886,0 c 4.066,0 6.506,-2.144 6.506,-5.693 l 0,-0.049 c 0,-2.785 -1.503,-4.534 -3.697,-5.347 l 4.214,-6.161 -4.435,0 z"
         style="fill:#000000;fill-opacity:1;fill-rule:nonzero;stroke:none"
         id="path106"
         inkscape:connector-curvature="0" />
    </g>
    <text
       xml:space="preserve"
       style="font-style:normal;font-variant:normal;font-weight:800;font-stretch:normal;font-size:40px;line-height:125%;font-family:Gotham;-inkscape-font-specification:Gotham;text-align:end;letter-spacing:0px;word-spacing:0px;text-anchor:end;fill:#000000;fill-opacity:1;stroke:none;stroke-width:1px;stroke-linecap:butt;stroke-linejoin:miter;stroke-opacity:1"
       x="617.14282"
       y="729.505"
       id="text3487"
       sodipodi:linespacing="125%"><tspan
         sodipodi:role="line"
         id="tspan3489"
         x="617.14282"
         y="729.505"
         style="font-size:37.5px" /></text>
  </g>
</svg>
